HIERARCHY
ROOT hip
{
	OFFSET 0.000000 0.000000 0.000000 
	CHANNELS 6 Xposition Yposition Zposition Xrotation Zrotation Yrotation
	JOINT abdomen
	{
		OFFSET 0.000000 3.402643 0.000000 
		CHANNELS 3 Xrotation Zrotation Yrotation
		JOINT chest
		{
			OFFSET 0.000000 8.438565 -0.680529 
			CHANNELS 3 Xrotation Zrotation Yrotation
			JOINT neck
			{
				OFFSET 0.000000 10.207942 -0.272212 
				CHANNELS 3 Xrotation Zrotation Yrotation
				JOINT head
				{
					OFFSET 0.000000 3.130431 0.000000 
					CHANNELS 3 Xrotation Zrotation Yrotation
					End Site
					{
						OFFSET 0.000000 3.130435 0.000000 
					}
				}
			}
			JOINT lCollar
			{
				OFFSET 3.470700 6.669187 -0.816635 
				CHANNELS 3 Yrotation Zrotation Xrotation
				JOINT lShldr
				{
					OFFSET 3.198488 0.000000 0.000000 
					CHANNELS 3 Zrotation Yrotation Xrotation
					JOINT lForeArm
					{
						OFFSET 10.139888 0.000000 0.000000 
						CHANNELS 3 Yrotation Zrotation Xrotation
						JOINT lHand
						{
							OFFSET 8.370511 0.000000 0.000000 
							CHANNELS 3 Zrotation Yrotation Xrotation
							End Site
							{
								OFFSET 4.083176 0.000000 0.000000 
							}
						}
					}
				}
			}
			JOINT rCollar
			{
				OFFSET -3.470700 6.669187 -0.816635 
				CHANNELS 3 Yrotation Zrotation Xrotation
				JOINT rShldr
				{
					OFFSET -3.198488 0.000000 0.000000 
					CHANNELS 3 Zrotation Yrotation Xrotation
					JOINT rForeArm
					{
						OFFSET -10.139888 0.000000 0.000000 
						CHANNELS 3 Yrotation Zrotation Xrotation
						JOINT rHand
						{
							OFFSET -8.370511 0.000000 0.000000 
							CHANNELS 3 Zrotation Yrotation Xrotation
							End Site
							{
								OFFSET -4.083176 0.000000 0.000000 
							}
						}
					}
				}
			}
		}
	}
	JOINT lThigh
	{
		OFFSET 5.308129 -1.633274 1.361059 
		CHANNELS 3 Xrotation Zrotation Yrotation
		JOINT lShin
		{
			OFFSET -2.041588 -20.007561 0.000000 
			CHANNELS 3 Xrotation Zrotation Yrotation
			JOINT lFoot
			{
				OFFSET 0.000000 -19.190928 -1.224953 
				CHANNELS 3 Xrotation Yrotation Zrotation
				End Site
				{
					OFFSET 0.000000 -2.449906 4.627600 
				}
			}
		}
	}
	JOINT rThigh
	{
		OFFSET -5.308129 -1.633274 1.361059 
		CHANNELS 3 Xrotation Zrotation Yrotation
		JOINT rShin
		{
			OFFSET 2.041588 -20.007561 0.000000 
			CHANNELS 3 Xrotation Zrotation Yrotation
			JOINT rFoot
			{
				OFFSET 0.000000 -19.190928 -1.224953 
				CHANNELS 3 Xrotation Yrotation Zrotation
				End Site
				{
					OFFSET 0.000000 -2.449906 4.627600 
				}
			}
		}
	}
}
MOTION
Frames: 20
Frame Time: 0.016667
5.608850 51.672508 -1.927995 -9.660685 -3.807742 1.213452 24.800686 7.034953 0.212327 3.485518 0.302550 -2.910180 -4.614125 3.013719 -0.317678 15.445460 -0.700984 -4.473038 -19.694880 -15.622403 -0.833198 -66.505547 9.584079 -25.235128 -56.423363 -5.000000 6.647474 15.145284 -30.000000 45.000000 17.954594 11.929750 -0.624010 57.983868 7.703004 4.651160 84.146324 5.000000 3.873935 10.010554 -21.973677 -25.565063 0.878693 15.780091 7.460422 32.790432 -4.701583 -3.312335 -21.795794 5.680339 -1.599622 9.450739 -14.938800 -7.194232 15.692557 4.880716 1.570507 -5.836684 -14.705080 14.952162 
6.070405 51.679607 -2.118284 -9.128384 -4.443305 -0.284622 24.948233 7.529302 0.214462 3.479559 0.448914 -3.085949 -4.819131 2.817683 -0.307762 15.159387 -0.564018 -5.263993 -20.034754 -15.495577 -0.826642 -66.563499 9.406818 -24.963577 -56.383701 -5.000000 6.395507 15.226981 -30.000000 45.000000 17.650776 11.832230 -0.618963 58.253906 7.920688 5.022585 84.067574 5.000000 3.897922 9.941202 -22.177046 -25.428255 0.438476 15.710072 8.878930 33.281033 -4.574054 -3.279487 -22.042835 5.820373 -1.059630 9.555258 -14.759785 -6.527115 12.821527 4.421840 1.167186 -4.671937 -13.980405 15.699246 
6.529236 51.678112 -2.303694 -8.583228 -4.781906 -2.117498 25.072889 7.539985 0.084331 3.499746 0.653794 -3.291092 -4.906572 2.642421 -0.291124 14.852011 -0.339727 -6.308715 -20.390862 -15.144463 -0.808498 -66.731079 9.326639 -24.818729 -56.444477 -5.000000 6.235997 15.355768 -30.000000 45.000000 17.337200 11.734708 -0.613915 58.607887 8.173557 5.390808 84.026588 5.000000 3.886019 9.822512 -22.325930 -25.303286 0.194173 15.296947 10.543123 33.466187 -4.368840 -3.140583 -22.258146 6.013931 -0.554723 9.852911 -14.784570 -6.190274 10.201392 4.098547 0.884191 -4.311350 -13.491433 16.167412 
6.986371 51.678757 -2.484677 -8.036525 -5.105088 -3.952062 25.178896 7.556334 -0.033363 3.519362 0.848875 -3.496266 -4.994035 2.467158 -0.274487 14.536504 -0.116221 -7.363306 -20.737337 -14.793346 -0.787831 -66.899193 9.256428 -24.669760 -56.515446 -5.000000 6.068139 15.476214 -30.000000 45.000000 17.013870 11.637188 -0.608864 58.962967 8.422213 5.762290 83.985840 5.000000 3.873550 9.702624 -22.463984 -25.186880 -0.068519 14.891763 12.206595 33.651321 -4.154014 -2.988557 -22.468573 6.232286 -0.112684 10.123027 -14.810474 -5.843820 7.625647 3.786978 0.610165 -3.901007 -13.001354 16.633890 
7.437937 51.693493 -2.660437 -7.494611 -5.517416 -5.926410 25.307701 7.640067 -0.113298 3.559037 1.014651 -3.681938 -5.012986 2.253273 -0.252007 14.222283 0.106224 -8.564458 -21.084621 -14.490986 -0.772205 -67.010429 9.214002 -24.597197 -56.617062 -5.000000 5.940588 15.581647 -30.000000 45.000000 16.683338 11.595377 -0.616006 59.231270 8.680938 6.133617 83.969925 5.000000 3.854312 9.613552 -22.577061 -25.054771 -0.235571 14.564853 13.951169 33.762611 -3.890450 -2.777796 -22.721882 6.430880 0.299305 10.230235 -14.722575 -5.637400 6.066135 3.724009 0.487718 -4.085356 -12.868525 16.656473 
7.884137 51.722588 -2.830850 -6.953424 -6.014770 -8.052464 25.448952 7.809853 -0.148275 3.598876 1.160879 -3.867635 -4.953670 1.991109 -0.222225 13.925539 0.336695 -9.912283 -21.413141 -14.237389 -0.756678 -67.062431 9.203807 -24.590094 -56.770485 -5.000000 5.836695 15.676231 -30.000000 45.000000 16.341759 11.614937 -0.617032 59.413582 8.937974 6.497136 83.991219 5.000000 3.816244 9.544938 -22.648466 -24.921425 -0.304427 14.338133 15.807034 33.731022 -3.558175 -2.535999 -23.015062 6.641465 0.655345 10.179620 -14.543468 -5.606054 5.554557 3.999465 0.498585 -4.861114 -13.004757 16.274218 
8.321778 51.766922 -2.992854 -6.399689 -6.555534 -10.214342 25.593435 8.044383 -0.133779 3.648302 1.297317 -4.053352 -4.894381 1.709633 -0.189520 13.635295 0.574600 -11.289564 -21.732491 -14.022798 -0.745592 -67.083809 9.212214 -24.607077 -56.924671 -5.000000 5.732815 15.749841 -30.000000 45.000000 15.990630 11.654002 -0.619068 59.557766 9.197513 6.857571 83.996658 5.000000 3.787573 9.500399 -22.698540 -24.795652 -0.362146 14.156467 17.665689 33.696926 -3.236048 -2.267483 -23.279804 6.917674 1.030440 10.037010 -14.305088 -5.628486 5.407260 4.322734 0.546028 -5.724030 -13.239968 15.740067 
8.751328 51.833893 -3.145190 -5.795406 -7.380373 -12.537741 25.758757 8.616532 0.061824 3.691039 1.365459 -4.229326 -4.737348 1.262549 -0.141635 13.427979 0.856987 -12.823583 -22.033216 -14.045918 -0.737798 -66.969193 9.243052 -24.716061 -57.131031 -5.000000 5.654317 15.816832 -30.000000 45.000000 15.660121 11.790586 -0.626148 59.468216 9.435022 7.153013 84.032082 5.000000 3.760899 9.530279 -22.695778 -24.735775 -0.343793 14.329764 19.563612 33.574036 -2.874341 -2.011136 -23.535265 7.277087 1.268610 9.584203 -13.705176 -6.037712 7.163577 5.005345 0.826417 -7.179542 -13.796937 14.495135 
9.167684 51.912132 -3.286871 -5.146329 -8.252043 -14.905305 25.929956 9.256638 0.299634 3.733496 1.433582 -4.414834 -4.570739 0.796153 -0.090825 13.241365 1.144540 -14.397449 -22.326967 -14.104428 -0.740819 -66.822800 9.280478 -24.845615 -57.337288 -5.000000 5.576264 15.873403 -30.000000 45.000000 15.329851 11.946672 -0.634234 59.340378 9.678600 7.441144 84.052948 5.000000 3.736552 9.574996 -22.676086 -24.683525 -0.293621 14.559997 21.487040 33.438538 -2.503279 -1.762445 -23.851213 7.634933 1.488933 9.080579 -13.065011 -6.530759 9.253215 5.757505 1.190543 -8.765989 -14.315813 13.120770 
9.562783 51.976585 -3.417475 -4.526638 -8.961657 -17.417345 26.085897 9.696301 0.507643 3.776989 1.482195 -4.571293 -4.365308 0.310444 -0.037093 13.093297 1.436065 -16.030504 -22.591028 -14.133682 -0.742330 -66.735985 9.346582 -25.047308 -57.561283 -5.000000 5.506044 15.861334 -30.000000 45.000000 14.989504 12.073504 -0.640802 59.230415 9.937718 7.721936 84.069626 5.000000 3.719797 9.673068 -22.623217 -24.650112 -0.167501 14.634840 23.453815 33.283062 -2.112531 -1.458909 -24.122303 8.127947 1.694270 8.530170 -12.464657 -7.431698 12.246237 6.362809 1.685218 -10.395270 -14.942096 11.482986 
9.938437 52.031349 -3.537206 -3.939394 -9.515401 -20.053749 26.222769 9.931143 0.673302 3.811600 1.521071 -4.707979 -4.101547 -0.205692 0.011332 12.995577 1.748759 -17.733072 -22.825668 -14.153187 -0.743336 -66.700104 9.445345 -25.321011 -57.782375 -5.000000 5.453298 15.790993 -30.000000 45.000000 14.648722 12.161330 -0.647409 59.140327 10.208591 8.007072 84.067848 5.000000 3.705524 9.832479 -22.533926 -24.656864 0.025795 14.600527 25.476263 33.075771 -1.721603 -1.133798 -24.355801 8.651162 1.839284 7.935618 -11.939819 -8.752242 16.092350 6.813653 2.316522 -12.063586 -15.655188 9.581965 
10.287192 52.065899 -3.644689 -3.379455 -9.980494 -22.716120 26.348986 10.093075 0.809802 3.856681 1.550203 -4.825397 -3.828174 -0.702517 0.056907 12.901775 2.044524 -19.436401 -23.052677 -14.159117 -0.752552 -66.695412 9.557617 -25.607573 -58.014267 -5.000000 5.392429 15.716120 -30.000000 45.000000 14.307720 12.229650 -0.650961 59.089024 10.483160 8.295349 84.051773 5.000000 3.707813 9.991435 -22.434202 -24.675926 0.221545 14.496086 27.472967 32.903492 -1.331021 -0.822210 -24.601851 9.197001 1.957086 7.391720 -11.483284 -10.146783 19.934834 7.159625 2.936826 -13.626715 -16.263561 7.716184 
10.608614 52.073757 -3.739926 -2.993395 -10.132674 -25.514547 26.386070 9.825291 0.731093 3.903028 1.579406 -4.874214 -3.496248 -1.141408 0.093683 12.897400 2.331925 -21.141275 -23.246664 -14.061566 -0.747509 -66.826836 9.737403 -25.980574 -58.242409 -5.000000 5.360997 15.639388 -30.000000 45.000000 13.992722 12.193054 -0.637628 59.159863 10.786163 8.589395 83.952652 5.000000 3.780944 10.168588 -22.305214 -24.716000 0.505285 14.077319 29.508558 32.708012 -0.920542 -0.514787 -24.684231 9.852203 1.984287 7.176292 -11.229152 -12.038352 23.686649 6.988176 3.436976 -14.732508 -16.880451 6.091105 
10.905375 52.063545 -3.825134 -2.647464 -10.208707 -28.329870 26.432011 9.472311 0.631005 3.959951 1.598873 -4.913268 -3.154326 -1.572103 0.119350 12.905121 2.610346 -22.837307 -23.430634 -13.944515 -0.741458 -66.991058 9.932360 -26.376411 -58.480434 -5.000000 5.334139 15.569429 -30.000000 45.000000 13.689432 12.144294 -0.635107 59.269279 11.090796 8.888828 83.826950 5.000000 3.876958 10.337218 -22.169077 -24.742853 0.786495 13.576902 31.534636 32.538223 -0.510470 -0.190482 -24.791721 10.598288 2.019004 7.010621 -11.034645 -14.008432 27.429541 6.705672 3.884816 -15.730612 -17.485174 4.518641 
11.177856 52.048035 -3.903964 -2.326792 -10.257911 -31.257854 26.413342 9.124565 0.497248 4.009345 1.589124 -4.923034 -2.812354 -2.022109 0.147603 12.966284 2.862887 -24.456228 -23.576332 -13.885983 -0.738428 -67.144379 10.127814 -26.807257 -58.674335 -5.000000 5.333520 15.528160 -30.000000 45.000000 13.424767 12.056527 -0.630569 59.372799 11.415483 9.219364 83.658096 5.000000 3.986980 10.487623 -22.062445 -24.744219 1.079922 13.089718 33.579098 32.382832 -0.090456 0.115126 -24.832766 11.435084 1.993184 7.056225 -10.806466 -16.089891 30.518959 6.303842 4.088488 -16.339993 -17.962858 3.255026 
11.428347 52.025974 -3.976189 -2.032277 -10.290768 -34.278416 26.364267 8.760701 0.356620 4.060935 1.559938 -4.874222 -2.459727 -2.484692 0.158303 13.080041 3.099413 -25.987795 -23.673857 -13.876215 -0.737917 -67.308807 10.322403 -27.292374 -58.824097 -5.000000 5.360703 15.562033 -30.000000 45.000000 13.189077 11.939502 -0.624515 59.467533 11.758815 9.563169 83.460014 5.000000 4.104252 10.620493 -21.996145 -24.715271 1.366606 12.607162 35.610550 32.251316 0.319747 0.396617 -24.752531 12.402044 1.914045 7.293217 -10.545412 -18.250540 32.944374 5.757464 4.052376 -16.543871 -18.427727 2.301963 
11.657806 52.002083 -4.046933 -1.743619 -10.301656 -37.302933 26.305651 8.400168 0.207045 4.102459 1.530734 -4.834909 -2.107245 -2.955468 0.180135 13.186121 3.335626 -27.511061 -23.769304 -13.880138 -0.726892 -67.465523 10.528712 -27.772848 -58.983738 -5.000000 5.390270 15.574636 -30.000000 45.000000 12.963276 11.832230 -0.618963 59.563232 12.101043 9.908221 83.248970 5.000000 4.234241 10.749064 -21.921247 -24.682314 1.650188 12.089648 37.655666 32.114040 0.749473 0.663206 -24.723392 13.355793 1.820844 7.534880 -10.260340 -20.427122 35.380581 5.210026 4.014193 -16.793751 -18.839865 1.347462 
11.865185 51.981697 -4.116917 -1.363721 -10.484044 -40.621304 26.277628 8.260677 0.223690 4.138129 1.462624 -4.678700 -1.733979 -3.467786 0.188558 13.329004 3.528433 -28.760704 -23.840380 -14.084925 -0.739813 -67.524498 10.706025 -28.291035 -59.065674 -5.000000 5.461357 15.741002 -30.000000 45.000000 12.805206 11.666446 -0.610379 59.611603 12.455702 10.252411 82.938438 5.000000 4.422537 10.825727 -21.826624 -24.594561 1.958970 11.861591 39.708141 32.081619 1.169280 0.981383 -24.661390 14.525105 1.592651 7.965800 -9.774193 -22.647507 36.368752 4.760919 3.753425 -16.654459 -19.194096 0.923878 
12.051246 51.959827 -4.189336 -0.979015 -10.642792 -43.950989 26.249268 8.133473 0.235256 4.173329 1.394485 -4.541770 -1.360214 -3.989757 0.198500 13.473109 3.714435 -30.000889 -23.911366 -14.279960 -0.749877 -67.588005 10.886915 -28.819744 -59.137527 -5.000000 5.535360 15.907336 -30.000000 45.000000 12.647269 11.510412 -0.602295 59.670822 12.808001 10.599433 82.628586 5.000000 4.604766 10.902754 -21.732351 -24.506474 2.241218 11.606428 39.985073 32.063469 1.598874 1.301632 -24.591549 15.739442 1.380901 8.380964 -9.272464 -24.872080 37.348961 4.302087 3.489635 -16.541189 -19.479900 0.516246 
12.213605 51.931953 -4.271678 -0.564669 -10.803052 -47.362579 26.199644 8.010657 0.236899 4.219042 1.316601 -4.385331 -1.024776 -4.453790 0.198987 13.615897 3.875156 -31.064724 -23.936003 -14.480784 -0.771521 -67.636955 11.068194 -29.348352 -59.212261 -5.000000 5.633076 16.158129 -30.000000 45.000000 12.537873 11.325122 -0.590772 59.748146 13.159493 10.938588 82.289093 5.000000 4.831195 10.941341 -21.643829 -24.412313 2.533295 11.429995 39.984192 32.118683 2.038540 1.642259 -24.583197 16.903294 1.065423 8.791173 -8.687279 -27.089428 37.725426 3.920749 3.195420 -16.535267 -19.881735 0.308291 
